<svg width="24" height="24" viewBox="0 0 24 24" fill="none" xmlns="http://www.w3.org/2000/svg">
<path d="M11.929 15C15.7949 15 18.929 11.866 18.929 8C18.929 4.13401 15.7949 1 11.929 1C8.06296 1 4.92896 4.13401 4.92896 8C4.92896 11.866 8.06296 15 11.929 15Z" fill="#4461F2"/>
<path d="M19.707 14.223C19.478 13.994 19.234 13.78 18.984 13.571C18.1439 14.64 17.0719 15.5042 15.8489 16.0982C14.6259 16.6922 13.2839 17.0005 11.9243 16.9998C10.5647 16.9991 9.22298 16.6895 8.00057 16.0943C6.77816 15.4991 5.70699 14.6339 4.86798 13.564C3.63132 14.5938 2.63716 15.8838 1.95645 17.342C1.27574 18.8002 0.925248 20.3907 0.929979 22C0.929979 22.2652 1.03534 22.5196 1.22287 22.7071C1.41041 22.8946 1.66476 23 1.92998 23H21.93C22.1952 23 22.4495 22.8946 22.6371 22.7071C22.8246 22.5196 22.93 22.2652 22.93 22C22.9336 20.555 22.6506 19.1236 22.0973 17.7887C21.5441 16.4538 20.7317 15.2419 19.707 14.223Z" fill="#4461F2"/>
</svg>
