<svg width="80" height="80" viewBox="0 0 80 80" fill="none" xmlns="http://www.w3.org/2000/svg" xmlns:xlink="http://www.w3.org/1999/xlink">
<path d="M46.998,5.022C46.946,5.015 46.893,5.01 46.84,5.007C41.27,4.579 36.953,4.791 33.995,5.12C32.514,5.284 31.375,5.478 30.59,5.635C30.176,5.718 29.762,5.809 29.354,5.919L29.329,5.926L29.32,5.928L29.316,5.929L29.313,5.93C28.905,6.047 28.532,6.266 28.232,6.566C24.753,10.045 21.117,14.761 18.39,18.537C17.016,20.438 15.855,22.128 15.036,23.343C14.626,23.951 14.302,24.441 14.079,24.78C13.967,24.95 13.881,25.082 13.822,25.173L13.755,25.277L13.73,25.315C12.983,26.477 13.32,28.023 14.481,28.77C15.643,29.517 17.19,29.179 17.937,28.018L17.955,27.99L18.016,27.896C18.07,27.813 18.151,27.688 18.258,27.525C18.471,27.201 18.785,26.727 19.182,26.137C19.978,24.956 21.108,23.313 22.443,21.464C24.818,18.175 27.785,14.319 30.641,11.268L37.152,23.288C35.727,24.276 34.672,25.081 33.91,25.7C32.544,26.81 32.907,28.815 34.462,29.487C39.716,31.756 46.675,33.729 51.87,34.885C53.897,35.337 55.918,34.17 56.541,32.189C58.133,27.123 59.899,20.132 60.565,14.455C60.764,12.754 59.182,11.433 57.53,12.07C56.791,12.355 55.858,12.742 54.714,13.263C53.922,12.044 52.996,10.726 51.937,9.38C51.8,9.206 51.655,9.037 51.502,8.876C50.464,7.465 49.66,6.595 49.022,6.048C48.644,5.725 48.278,5.474 47.91,5.299C47.723,5.21 47.525,5.135 47.318,5.083C47.214,5.057 47.107,5.036 46.998,5.022Z" fill="#4461F2"/>
<path d="M65.852,24.592C65.22,23.365 63.712,22.883 62.485,23.515C61.258,24.148 60.776,25.657 61.408,26.884L61.424,26.914L61.475,27.013C61.52,27.102 61.587,27.235 61.675,27.409C61.849,27.756 62.102,28.264 62.415,28.903C63.039,30.183 63.898,31.983 64.831,34.064C66.492,37.765 68.348,42.262 69.563,46.262L55.898,45.89C55.754,44.161 55.585,42.845 55.43,41.876C55.152,40.138 53.233,39.45 51.874,40.461C47.282,43.876 42.094,48.917 38.495,52.837C37.091,54.367 37.091,56.701 38.495,58.231C42.086,62.142 47.257,67.167 51.841,70.583C53.214,71.605 55.15,70.896 55.424,69.147C55.546,68.365 55.678,67.362 55.799,66.111C57.25,66.035 58.854,65.892 60.55,65.648C60.769,65.616 60.987,65.575 61.202,65.524C62.944,65.33 64.1,65.069 64.892,64.79C65.361,64.624 65.761,64.433 66.097,64.201C66.268,64.084 66.431,63.95 66.58,63.796C66.655,63.719 66.726,63.637 66.793,63.55C66.825,63.508 66.856,63.465 66.885,63.421C70.04,58.811 72.015,54.966 73.21,52.24C73.808,50.875 74.21,49.792 74.466,49.034C74.594,48.655 74.686,48.357 74.748,48.146C74.779,48.041 74.802,47.957 74.819,47.896L74.839,47.821L74.845,47.796L74.847,47.787L74.849,47.78C74.952,47.368 74.949,46.936 74.839,46.526C73.565,41.773 71.3,36.267 69.393,32.017C68.433,29.877 67.55,28.026 66.908,26.71C66.586,26.051 66.324,25.525 66.141,25.162C66.05,24.981 65.979,24.84 65.93,24.744L65.873,24.633L65.852,24.592Z" fill="#4461F2"/>
<path d="M7.294,45.599C6.591,47.205 6.239,48.337 6.085,49.162C5.994,49.651 5.96,50.093 5.992,50.5C6.009,50.707 6.043,50.915 6.101,51.12C6.131,51.224 6.166,51.326 6.208,51.428C6.229,51.476 6.25,51.525 6.274,51.572C8.689,56.61 11.031,60.243 12.795,62.64C13.678,63.84 14.415,64.73 14.943,65.331C15.207,65.632 15.419,65.86 15.571,66.019C15.647,66.098 15.708,66.16 15.752,66.205L15.807,66.26L15.825,66.278L15.832,66.285L15.837,66.29C16.143,66.585 16.518,66.798 16.929,66.908C21.681,68.181 27.583,68.972 32.217,69.446C34.55,69.685 36.594,69.846 38.056,69.948C38.787,69.998 39.374,70.034 39.779,70.058C39.982,70.069 40.139,70.078 40.247,70.084L40.371,70.09L40.417,70.092C41.796,70.158 42.967,69.094 43.033,67.714C43.099,66.335 42.033,65.164 40.654,65.098L40.621,65.096L40.509,65.091C40.41,65.085 40.261,65.077 40.067,65.066C39.679,65.044 39.112,65.009 38.403,64.96C36.982,64.861 34.993,64.704 32.725,64.472C28.689,64.059 23.867,63.419 19.796,62.471L26.95,50.822C28.519,51.562 29.743,52.074 30.66,52.424C32.304,53.052 33.86,51.735 33.664,50.052C33.002,44.367 31.231,37.355 29.635,32.277C29.012,30.296 26.991,29.129 24.964,29.581C19.782,30.735 12.844,32.7 7.594,34.963C6.022,35.64 5.668,37.671 7.046,38.783C7.662,39.28 8.464,39.896 9.487,40.626C8.828,41.921 8.15,43.382 7.513,44.972C7.431,45.178 7.358,45.387 7.294,45.599Z" fill="#4461F2"/>
</svg>
