<svg width="72" height="72" viewBox="0 0 72 72" fill="none" xmlns="http://www.w3.org/2000/svg" xmlns:xlink="http://www.w3.org/1999/xlink">
<path d="M17.976,2.193C13.892,2.193 10.956,2.41 8.878,2.682C5.164,3.166 2.789,6.121 2.576,9.633C2.461,11.518 2.372,14.156 2.372,17.797C2.372,21.438 2.461,24.076 2.576,25.961C2.789,29.473 5.164,32.428 8.878,32.913C10.956,33.184 13.892,33.401 17.976,33.401C22.059,33.401 24.996,33.184 27.073,32.913C30.787,32.428 33.162,29.473 33.376,25.961C33.49,24.076 33.58,21.438 33.58,17.797C33.58,14.156 33.49,11.518 33.376,9.633C33.162,6.121 30.787,3.166 27.073,2.682C24.996,2.41 22.059,2.193 17.976,2.193Z" fill="#4461F2"/>
<path d="M17.976,69.067C13.892,69.067 10.956,68.85 8.878,68.579C5.164,68.094 2.789,65.139 2.576,61.627C2.461,59.742 2.372,57.104 2.372,53.463C2.372,49.822 2.461,47.184 2.576,45.299C2.789,41.787 5.164,38.832 8.878,38.348C10.956,38.077 13.892,37.859 17.976,37.859C22.059,37.859 24.996,38.077 27.073,38.348C30.787,38.832 33.162,41.787 33.376,45.299C33.49,47.184 33.58,49.822 33.58,53.463C33.58,57.104 33.49,59.742 33.376,61.627C33.162,65.139 30.787,68.094 27.073,68.579C24.996,68.85 22.059,69.067 17.976,69.067Z" fill="#4461F2"/>
<path d="M69.246,17.797C69.246,13.713 69.028,10.777 68.757,8.7C68.273,4.985 65.318,2.611 61.806,2.397C59.921,2.283 57.283,2.193 53.642,2.193C50.001,2.193 47.363,2.283 45.478,2.397C41.966,2.611 39.011,4.985 38.527,8.7C38.255,10.777 38.038,13.713 38.038,17.797C38.038,21.881 38.255,24.817 38.527,26.895C39.011,30.609 41.966,32.984 45.478,33.197C47.363,33.311 50.001,33.401 53.642,33.401C57.283,33.401 59.921,33.311 61.806,33.197C65.318,32.984 68.273,30.609 68.757,26.895C69.028,24.817 69.246,21.881 69.246,17.797Z" fill="#4461F2"/>
<path d="M53.642,37.859C52.867,37.859 52.203,37.903 51.64,37.971C49.721,38.201 48.667,39.865 48.603,41.585C48.551,43.001 48.495,45.149 48.464,48.285C45.328,48.316 43.18,48.372 41.764,48.424C40.044,48.488 38.38,49.542 38.15,51.461C38.082,52.024 38.038,52.688 38.038,53.463C38.038,54.238 38.082,54.902 38.15,55.465C38.38,57.384 40.044,58.438 41.764,58.502C43.18,58.554 45.328,58.61 48.464,58.641C48.495,61.777 48.551,63.925 48.603,65.341C48.667,67.061 49.721,68.725 51.64,68.955C52.203,69.023 52.867,69.067 53.642,69.067C54.417,69.067 55.081,69.023 55.644,68.955C57.563,68.725 58.617,67.061 58.681,65.341C58.733,63.925 58.789,61.777 58.82,58.641C61.956,58.61 64.104,58.554 65.52,58.502C67.24,58.438 68.904,57.384 69.134,55.465C69.202,54.902 69.246,54.238 69.246,53.463C69.246,52.688 69.202,52.024 69.134,51.461C68.904,49.542 67.24,48.488 65.52,48.424C64.104,48.372 61.956,48.316 58.82,48.285C58.789,45.149 58.733,43.001 58.681,41.585C58.617,39.865 57.563,38.201 55.644,37.971C55.081,37.903 54.417,37.859 53.642,37.859Z" fill="#4461F2"/>
</svg>
