<svg width="80" height="80" viewBox="0 0 80 80" fill="none" xmlns="http://www.w3.org/2000/svg" xmlns:xlink="http://www.w3.org/1999/xlink">
<path d="M40,23.333C45.523,23.333 50,18.856 50,13.333C50,7.81 45.523,3.333 40,3.333C34.478,3.333 30,7.81 30,13.333C30,18.856 34.478,23.333 40,23.333Z" fill="#4461F2"/>
<path d="M21.735,40.015C24.818,40.009 28.674,40.004 33.334,40.002L33.334,36.667C33.334,32.985 36.319,30 40.001,30C43.682,30 46.667,32.985 46.667,36.667L46.667,40.002C51.327,40.004 55.183,40.009 58.266,40.015C57.704,36.661 56.969,33.886 56.333,31.852C55.476,29.115 53.281,27.058 50.406,26.58C48.064,26.19 44.65,25.833 40.001,25.833C35.352,25.833 31.938,26.19 29.596,26.58C26.721,27.058 24.525,29.116 23.668,31.853C23.032,33.887 22.297,36.662 21.735,40.015Z" fill="#4461F2"/>
<path d="M42.5,36.667C42.5,35.286 41.381,34.167 40,34.167C38.619,34.167 37.5,35.286 37.5,36.667L37.5,44.168C23.554,44.178 15.632,44.276 13.135,44.312C11.819,44.331 10.139,45.062 9.584,46.895C9.354,47.654 9.167,48.679 9.167,50C9.167,51.321 9.354,52.346 9.584,53.105C10.139,54.938 11.819,55.669 13.135,55.688C13.413,55.692 13.758,55.697 14.171,55.702C15.118,63.555 15.972,69.616 16.402,72.567C16.738,74.876 18.633,76.644 20.975,76.8C24.569,77.038 32.504,77.5 40,77.5C47.496,77.5 55.431,77.038 59.025,76.8C61.367,76.644 63.262,74.876 63.599,72.567C64.029,69.616 64.882,63.555 65.829,55.702C66.242,55.697 66.587,55.692 66.865,55.688C68.181,55.669 69.861,54.938 70.417,53.105C70.647,52.346 70.833,51.321 70.833,50C70.833,48.679 70.647,47.654 70.417,46.895C69.861,45.062 68.181,44.331 66.865,44.312C64.368,44.276 56.446,44.178 42.5,44.168L42.5,36.667Z" fill="#4461F2"/>
</svg>
