<svg width="60" height="70" viewBox="0 0 60 70" fill="none" xmlns="http://www.w3.org/2000/svg" xmlns:xlink="http://www.w3.org/1999/xlink">
<path d="M37.757,48.621L41.679,42.086L37.286,40.993L33.257,46.371L37.757,48.621Z" fill="#4461F2"/>
<path d="M22.243,48.621L26.743,46.371L22.714,40.993L18.322,42.086L22.243,48.621Z" fill="#4461F2"/>
<path d="M53.507,45.043L46.029,43.179L40.414,52.522C40.139,52.99 39.695,53.336 39.173,53.487C38.651,53.639 38.09,53.585 37.607,53.336L32.143,50.614L32.143,68.572L47.143,68.572L47.143,60C47.143,59.432 47.369,58.887 47.77,58.485C48.172,58.083 48.717,57.857 49.286,57.857C49.854,57.857 50.399,58.083 50.801,58.485C51.203,58.887 51.429,59.432 51.429,60L51.429,68.572L57.857,68.572C58.425,68.572 58.97,68.346 59.372,67.944C59.774,67.542 60,66.997 60,66.429L60,53.357C59.996,51.447 59.356,49.592 58.18,48.086C57.004,46.58 55.36,45.51 53.507,45.043Z" fill="#4461F2"/>
<path d="M19.586,52.522L13.971,43.179L6.493,45.043C4.64,45.51 2.996,46.58 1.82,48.086C0.644,49.592 0.004,51.447 0,53.357L0,66.429C0,66.997 0.226,67.542 0.628,67.944C1.029,68.346 1.575,68.572 2.143,68.572L8.571,68.572L8.571,60C8.571,59.432 8.797,58.887 9.199,58.485C9.601,58.083 10.146,57.857 10.714,57.857C11.283,57.857 11.828,58.083 12.23,58.485C12.631,58.887 12.857,59.432 12.857,60L12.857,68.572L27.857,68.572L27.857,50.614L22.393,53.336C21.91,53.585 21.349,53.639 20.827,53.487C20.305,53.336 19.861,52.99 19.586,52.522Z" fill="#4461F2"/>
<path d="M38.571,21.429L38.571,16.95L21.428,15.236L21.428,21.429C21.428,23.702 22.332,25.882 23.939,27.49C25.546,29.097 27.727,30 30,30C32.273,30 34.453,29.097 36.061,27.49C37.668,25.882 38.571,23.702 38.571,21.429Z" fill="#4461F2"/>
<path d="M17.143,27.857L18.879,27.857C18.091,26.542 17.567,25.087 17.336,23.571C17.206,22.865 17.141,22.147 17.143,21.429L17.143,12.857C17.144,12.558 17.207,12.263 17.329,11.99C17.451,11.716 17.628,11.472 17.85,11.271C18.073,11.072 18.335,10.92 18.618,10.824C18.902,10.729 19.202,10.691 19.5,10.714L40.929,12.857C41.456,12.917 41.944,13.168 42.299,13.563C42.655,13.958 42.853,14.469 42.857,15L42.857,21.429C42.859,22.147 42.794,22.865 42.664,23.571C42.433,25.087 41.909,26.542 41.122,27.857L42.857,27.857C44.561,27.852 46.193,27.173 47.397,25.969C48.602,24.764 49.281,23.132 49.286,21.429L49.286,10.714C49.285,7.873 48.156,5.148 46.147,3.139C44.137,1.13 41.413,0.001 38.572,0L24.45,0C22.241,-0.005 20.102,0.769 18.407,2.186C16.299,2.408 14.347,3.402 12.927,4.976C11.506,6.55 10.719,8.594 10.714,10.714L10.714,21.429C10.719,23.132 11.398,24.764 12.603,25.969C13.807,27.173 15.439,27.852 17.143,27.857Z" fill="#4461F2"/>
<path d="M34.286,33.557C32.905,34.028 31.458,34.274 30,34.286C28.541,34.279 27.093,34.033 25.714,33.557L25.714,37.864L30,43.564L34.286,37.864L34.286,33.557Z" fill="#4461F2"/>
</svg>
