<svg width="70" height="70" viewBox="0 0 70 70" fill="none" xmlns="http://www.w3.org/2000/svg" xmlns:xlink="http://www.w3.org/1999/xlink">
<path d="M51.141,1.018C56.423,-0.065 61.064,-0.054 63.267,0.038C65.22,0.12 66.771,1.671 66.852,3.624C66.944,5.827 66.956,10.467 65.872,15.75C65.233,18.866 61.487,19.71 59.42,17.644L56.439,14.663C55.556,15.461 54.362,16.558 52.996,17.86C50.055,20.661 46.364,24.365 43.253,28.062C40.605,31.207 35.526,31.186 33.039,27.706C31.703,25.835 29.967,23.483 28.144,21.218C24.668,23.596 17.453,29.07 9.342,38.346C8.839,38.921 8.333,39.51 7.824,40.115C6.717,41.429 4.755,41.597 3.44,40.49C2.126,39.383 1.958,37.421 3.065,36.107C3.599,35.472 4.13,34.854 4.658,34.25C13.353,24.307 21.125,18.458 24.869,15.92C27.487,14.145 30.922,14.756 32.842,17.132C34.821,19.58 36.69,22.113 38.102,24.088C38.115,24.107 38.126,24.115 38.142,24.123C38.163,24.134 38.201,24.147 38.256,24.148C38.373,24.152 38.45,24.105 38.492,24.055C41.814,20.109 45.689,16.227 48.704,13.355C49.999,12.12 51.145,11.064 52.034,10.258L49.247,7.47C47.18,5.404 48.025,1.658 51.141,1.018ZM50.188,64.129C49.983,61.311 49.778,56.29 49.778,47.444C49.778,38.599 49.983,33.578 50.188,30.76C50.415,27.634 52.699,25.194 55.946,24.995C56.98,24.932 58.276,24.889 59.889,24.889C61.502,24.889 62.798,24.932 63.831,24.995C67.078,25.194 69.362,27.634 69.59,30.76C69.795,33.578 70,38.599 70,47.444C70,56.29 69.795,61.311 69.59,64.129C69.362,67.255 67.078,69.695 63.831,69.894C62.798,69.957 61.502,70 59.889,70C58.276,70 56.98,69.957 55.946,69.893C52.699,69.695 50.415,67.255 50.188,64.129ZM0.262,64.976C0.113,63.508 0,61.391 0,58.333C0,55.275 0.113,53.159 0.262,51.691C0.576,48.594 3.06,46.82 5.781,46.729C6.85,46.693 8.264,46.667 10.111,46.667C11.958,46.667 13.372,46.693 14.441,46.729C17.162,46.82 19.646,48.594 19.96,51.691C20.109,53.159 20.222,55.275 20.222,58.333C20.222,61.391 20.109,63.508 19.96,64.976C19.646,68.073 17.162,69.846 14.441,69.938C13.372,69.973 11.958,70 10.111,70C8.264,70 6.85,69.973 5.781,69.938C3.06,69.846 0.576,68.073 0.262,64.976ZM24.889,53.667C24.889,58.973 25.042,62.322 25.219,64.427C25.487,67.613 27.927,69.788 31.008,69.923C32.039,69.968 33.35,70 35,70C36.65,70 37.961,69.968 38.992,69.923C42.073,69.788 44.513,67.613 44.781,64.427C44.958,62.322 45.111,58.973 45.111,53.667C45.111,48.36 44.958,45.012 44.781,42.906C44.513,39.721 42.073,37.545 38.992,37.41C37.961,37.365 36.65,37.333 35,37.333C33.35,37.333 32.039,37.365 31.008,37.41C27.927,37.545 25.487,39.721 25.219,42.906C25.042,45.012 24.889,48.36 24.889,53.667Z" clip-rule="evenodd" fill-rule="evenodd" fill="#4461F2"/>
</svg>
